# xmcd CD database file
#
# Track frame offsets:
#	150
#	34365
#	70125
#	92482
#	113990
#	157457
#
# Disc length: 2811 seconds
#
# Revision: 0
# Processed by: cddbd v1.5.2PL0 Copyright (c) Steve Scherf et al.
# Submitted via: CDex 1.70beta2
#
DISCID=510af906
DTITLE=NDR Bigband - plays Norbert Stein Pata Music: Graffiti Suite 2
DYEAR=2006
DGENRE=Jazz
TTITLE0=Der Vogelschwarm: Der Berg
TTITLE1=Der Vogelschwarm: Fegefeuer der Vokale
TTITLE2=Der Vogelschwarm: Der Vogelflug
TTITLE3=Hot spots, Tai Chi and More: Global positions
TTITLE4=Hot spots, Tai Chi and More: Maschinenmenschen
TTITLE5=Hot spots, Tai Chi and More: Zigzag Aethernitas
EXTD=YEAR: 2006
EXTT0=
EXTT1=
EXTT2=
EXTT3=
EXTT4=
EXTT5=
PLAYORDER=
